<svg viewBox="0 0 1920 1080" xmlns="http://www.w3.org/2000/svg">
  <defs>
    <linearGradient id="wvs_bg" x1="0%" y1="0%" x2="100%" y2="100%">
      <stop offset="0%" stop-color="#0C1428"/>
      <stop offset="100%" stop-color="#081020"/>
    </linearGradient>
    <linearGradient id="wvs_band1" x1="0%" y1="0%" x2="100%" y2="0%">
      <stop offset="0%" stop-color="#1A5A8C" stop-opacity="0"/>
      <stop offset="15%" stop-color="#2878B0" stop-opacity="0.25"/>
      <stop offset="35%" stop-color="#4CB0E8" stop-opacity="0.35"/>
      <stop offset="55%" stop-color="#78CCF0" stop-opacity="0.25"/>
      <stop offset="75%" stop-color="#F0A030" stop-opacity="0.12"/>
      <stop offset="100%" stop-color="#C07020" stop-opacity="0"/>
    </linearGradient>
    <linearGradient id="wvs_band2" x1="0%" y1="0%" x2="100%" y2="0%">
      <stop offset="0%" stop-color="#78CCF0" stop-opacity="0"/>
      <stop offset="30%" stop-color="#4CB0E8" stop-opacity="0.15"/>
      <stop offset="60%" stop-color="#2878B0" stop-opacity="0.2"/>
      <stop offset="100%" stop-color="#1A5A8C" stop-opacity="0"/>
    </linearGradient>
  </defs>
  <rect width="1920" height="1080" fill="url(#wvs_bg)"/>
  <path d="M0,350 C480,300 960,420 1440,340 C1680,300 1920,360 1920,360 L1920,550 C1440,480 960,600 480,520 C240,480 0,540 0,540 Z" fill="url(#wvs_band1)"/>
  <path d="M0,520 C400,480 800,560 1200,500 C1560,450 1920,520 1920,520 L1920,680 C1560,620 1200,700 800,640 C400,580 0,680 0,680 Z" fill="url(#wvs_band2)"/>
  <path d="M0,750 C320,710 640,780 960,730 C1280,680 1600,760 1920,720 L1920,1080 L0,1080 Z" fill="#0A1628" opacity="0.5"/>
  <circle cx="100" cy="80" r="1.5" fill="white" opacity="0.35"/>
  <circle cx="380" cy="150" r="1" fill="#4CB0E8" opacity="0.3"/>
  <circle cx="750" cy="90" r="1.3" fill="white" opacity="0.3"/>
  <circle cx="1100" cy="120" r="1" fill="#78CCF0" opacity="0.25"/>
  <circle cx="1500" cy="80" r="1.4" fill="white" opacity="0.25"/>
  <circle cx="1800" cy="160" r="1" fill="#F0A030" opacity="0.15"/>
</svg>
