<svg viewBox="0 0 1920 1080" xmlns="http://www.w3.org/2000/svg">
  <defs>
    <linearGradient id="wva_bg" x1="0%" y1="0%" x2="0%" y2="100%">
      <stop offset="0%" stop-color="#0A1830"/>
      <stop offset="50%" stop-color="#102848"/>
      <stop offset="100%" stop-color="#061020"/>
    </linearGradient>
    <radialGradient id="wva_orb1" cx="30%" cy="40%" r="28%">
      <stop offset="0%" stop-color="#4CB0E8" stop-opacity="0.2"/>
      <stop offset="100%" stop-color="#4CB0E8" stop-opacity="0"/>
    </radialGradient>
    <radialGradient id="wva_orb2" cx="70%" cy="55%" r="25%">
      <stop offset="0%" stop-color="#78CCF0" stop-opacity="0.15"/>
      <stop offset="100%" stop-color="#78CCF0" stop-opacity="0"/>
    </radialGradient>
    <radialGradient id="wva_orb3" cx="55%" cy="25%" r="18%">
      <stop offset="0%" stop-color="#F0A030" stop-opacity="0.1"/>
      <stop offset="100%" stop-color="#F0A030" stop-opacity="0"/>
    </radialGradient>
  </defs>
  <rect width="1920" height="1080" fill="url(#wva_bg)"/>
  <rect width="1920" height="1080" fill="url(#wva_orb1)"/>
  <rect width="1920" height="1080" fill="url(#wva_orb2)"/>
  <rect width="1920" height="1080" fill="url(#wva_orb3)"/>
  <rect x="200" y="150" width="350" height="250" rx="8" fill="none" stroke="#4CB0E8" stroke-width="0.6" opacity="0.08" transform="rotate(-12 375 275)"/>
  <rect x="1300" y="300" width="280" height="200" rx="8" fill="none" stroke="#78CCF0" stroke-width="0.5" opacity="0.06" transform="rotate(8 1440 400)"/>
  <rect x="700" y="500" width="400" height="280" rx="8" fill="none" stroke="#4CB0E8" stroke-width="0.4" opacity="0.05" transform="rotate(-5 900 640)"/>
  <circle cx="500" cy="300" r="80" fill="none" stroke="#78CCF0" stroke-width="0.5" opacity="0.06"/>
  <circle cx="1400" cy="600" r="60" fill="none" stroke="#4CB0E8" stroke-width="0.4" opacity="0.05"/>
  <circle cx="150" cy="100" r="1.5" fill="white" opacity="0.3"/>
  <circle cx="500" cy="80" r="1" fill="#4CB0E8" opacity="0.25"/>
  <circle cx="900" cy="120" r="1.3" fill="white" opacity="0.25"/>
  <circle cx="1300" cy="90" r="1" fill="#78CCF0" opacity="0.2"/>
  <circle cx="1700" cy="140" r="1.4" fill="white" opacity="0.25"/>
</svg>
