<svg viewBox="0 0 1920 1080" xmlns="http://www.w3.org/2000/svg">
  <defs>
    <linearGradient id="wvw_bg" x1="0%" y1="100%" x2="100%" y2="0%">
      <stop offset="0%" stop-color="#061018"/>
      <stop offset="40%" stop-color="#102040"/>
      <stop offset="70%" stop-color="#183060"/>
      <stop offset="100%" stop-color="#0E1E36"/>
    </linearGradient>
    <linearGradient id="wvw_wave1" x1="0%" y1="0%" x2="100%" y2="0%">
      <stop offset="0%" stop-color="#4CB0E8" stop-opacity="0"/>
      <stop offset="25%" stop-color="#4CB0E8" stop-opacity="0.25"/>
      <stop offset="50%" stop-color="#78CCF0" stop-opacity="0.18"/>
      <stop offset="75%" stop-color="#4CB0E8" stop-opacity="0.25"/>
      <stop offset="100%" stop-color="#4CB0E8" stop-opacity="0"/>
    </linearGradient>
    <linearGradient id="wvw_wave2" x1="0%" y1="0%" x2="100%" y2="0%">
      <stop offset="0%" stop-color="#2878B0" stop-opacity="0"/>
      <stop offset="30%" stop-color="#2878B0" stop-opacity="0.2"/>
      <stop offset="70%" stop-color="#3898D0" stop-opacity="0.15"/>
      <stop offset="100%" stop-color="#2878B0" stop-opacity="0"/>
    </linearGradient>
  </defs>
  <rect width="1920" height="1080" fill="url(#wvw_bg)"/>
  <path d="M-50,450 C300,380 600,520 960,430 C1320,340 1620,480 1970,400" fill="none" stroke="url(#wvw_wave1)" stroke-width="3"/>
  <path d="M-50,520 C350,460 700,580 1050,490 C1400,400 1650,530 1970,470" fill="none" stroke="url(#wvw_wave1)" stroke-width="2.5" opacity="0.7"/>
  <path d="M-50,590 C280,540 560,650 900,570 C1240,490 1580,620 1970,550" fill="none" stroke="url(#wvw_wave2)" stroke-width="2" opacity="0.5"/>
  <path d="M0,700 C350,650 700,750 1050,680 C1400,610 1700,720 1920,670 L1920,1080 L0,1080 Z" fill="#0A1628" opacity="0.45"/>
  <path d="M0,820 C300,790 600,850 900,810 C1200,770 1500,840 1800,800 L1920,810 L1920,1080 L0,1080 Z" fill="#081420" opacity="0.5"/>
  <circle cx="120" cy="90" r="1.4" fill="white" opacity="0.35"/>
  <circle cx="500" cy="160" r="1" fill="#78CCF0" opacity="0.3"/>
  <circle cx="850" cy="100" r="1.2" fill="white" opacity="0.25"/>
  <circle cx="1200" cy="140" r="1" fill="#4CB0E8" opacity="0.3"/>
  <circle cx="1550" cy="70" r="1.3" fill="white" opacity="0.3"/>
  <circle cx="1800" cy="180" r="0.9" fill="#78CCF0" opacity="0.25"/>
</svg>
