<svg xmlns="http://www.w3.org/2000/svg" viewBox="0 0 32 32">
  <defs>
    <mask id="svGearMask">
      <rect width="32" height="32" fill="white"/>
      <circle cx="16" cy="16" r="4.8" fill="black"/>
    </mask>
  </defs>
  <g mask="url(#svGearMask)">
    <path d="M14,3 L18,3 L19,6.8 L22,7.8 L25,5.8 L27.5,8.3 L25.5,11.3 L26.5,14.3 L30,15 L30,19 L26.5,20 L25.5,23 L27.5,26 L25,28.5 L22,26.5 L19,27.5 L18,31 L14,31 L13,27.5 L10,26.5 L7,28.5 L4.5,26 L6.5,23 L5.5,20 L2,19 L2,15 L5.5,14 L6.5,11 L4.5,8 L7,5.5 L10,7.5 L13,6.5 Z"
          fill="#2D2D2D" stroke="#4CB0E8" stroke-width="0.7" stroke-opacity="0.5"/>
  </g>
  <circle cx="16" cy="16" r="4.8" fill="none" stroke="#4CB0E8" stroke-width="0.9" opacity="0.45"/>
  <circle cx="16" cy="16" r="1.8" fill="#4CB0E8" opacity="0.6"/>
</svg>
